<svg width="235" height="137" viewBox="0 0 235 137" fill="none" xmlns="http://www.w3.org/2000/svg">
<path d="M221.713 27.1326C223.483 31.2985 226.701 35.4644 226.701 39.6303C227.184 62.8403 227.184 86.1991 226.54 109.409C226.379 114.468 222.679 119.675 220.748 124.734C220.587 124.734 218.013 124.287 218.013 124.287C218.013 124.287 211.094 111.492 208.52 106.731C217.53 98.8456 218.978 88.5796 218.656 77.5697C218.174 62.5427 218.334 47.367 218.495 32.34C218.495 30.7034 219.139 29.2155 219.622 27.5789C220.265 27.4301 221.07 27.2814 221.713 27.1326Z" fill="white"/>
<path d="M116.811 136.934C89.1367 136.934 61.6239 137.083 33.9501 136.934C13.0339 136.934 -0.159439 124.734 0.00145509 105.243C0.162349 79.2064 0.645031 53.3183 1.28861 27.2814C1.6104 12.2544 13.9992 0.798133 30.0886 0.798133C83.3445 0.649351 136.761 0.649358 190.017 1.0957C195.488 1.0957 202.084 2.88108 206.428 6.00551C214.473 11.808 222.035 18.8008 228.149 26.2399C231.689 30.5546 233.62 37.101 233.78 42.7547C234.424 63.5842 234.102 84.4137 234.102 105.243C234.102 125.626 222.035 136.934 199.832 136.934C171.997 136.934 144.323 136.934 116.811 136.934ZM110.857 108.665C136.6 108.665 162.183 108.665 187.926 108.665C204.015 108.665 213.669 100.036 213.83 85.3064C214.151 67.0062 213.99 48.706 213.83 30.4058C213.669 14.0398 204.015 5.2616 186.317 5.2616C135.474 5.2616 84.4708 5.2616 33.6283 5.2616C15.6082 5.2616 5.79364 14.3373 5.79364 31.0009C5.63274 48.4085 5.63274 65.6672 5.79364 83.0747C5.95453 99.8871 15.4473 108.814 33.4674 108.814C59.3713 108.665 85.1144 108.665 110.857 108.665ZM205.463 111.343C194.844 112.087 185.351 113.129 175.859 113.278C138.37 113.426 100.882 113.873 63.2328 113.129C44.5691 112.831 24.6182 118.187 7.72437 104.648C6.11543 120.121 16.0909 130.536 32.1803 130.536C88.8149 130.685 145.289 130.685 201.923 130.536C205.624 130.536 209.485 129.495 214.151 128.751C210.612 121.758 207.877 116.253 205.463 111.343ZM221.874 27.2814C221.07 27.4302 220.426 27.5789 219.622 27.7277C219.3 29.3643 218.495 30.8521 218.495 32.4888C218.495 47.5158 218.174 62.6915 218.656 77.7185C218.978 88.7284 217.53 98.9944 208.52 106.88C211.899 112.98 214.956 118.634 218.174 124.287C219.139 124.436 219.944 124.585 220.909 124.734C222.84 119.675 226.54 114.617 226.54 109.558C227.184 86.3479 227.184 62.9891 226.701 39.7791C226.701 35.6132 223.644 31.4473 221.874 27.2814Z" fill="black"/>
<path d="M205.463 111.343C207.876 116.253 210.612 121.758 213.99 128.751C209.325 129.495 205.463 130.536 201.763 130.536C145.128 130.685 88.654 130.685 32.0194 130.536C15.93 130.536 5.95452 120.121 7.72436 104.499C24.6182 118.039 44.4082 112.682 63.2328 112.98C100.721 113.575 138.209 113.277 175.859 113.129C185.351 113.129 194.844 112.087 205.463 111.343Z" fill="white" fill-opacity="0.86"/>
<path d="M213.508 30.257C213.347 13.891 203.854 5.11282 186.156 5.11282C135.313 5.11282 84.6316 5.11282 33.7891 5.11282C15.769 5.11282 6.11535 14.1885 5.95446 30.8522C5.79356 48.1109 5.79356 65.5184 5.95446 82.7772C5.95446 99.5896 15.4472 108.368 33.6282 108.368C59.2104 108.368 84.9534 108.368 110.536 108.368C136.118 108.368 161.861 108.368 187.443 108.368C203.371 108.368 213.186 99.7383 213.347 85.1577C213.669 66.8575 213.508 48.5572 213.508 30.257ZM65.1634 46.1767V46.6231C65.1634 46.4743 65.0026 46.3255 65.0026 46.1767C65.1635 46.1767 65.1634 46.1767 65.1634 46.1767Z" fill="#B5EFED"/>
<path d="M93.159 75.6356C92.8372 75.6356 92.3545 75.338 91.55 74.7429C90.9064 74.1478 90.2629 73.5527 89.9411 73.1063C88.493 73.8502 87.045 74.4453 85.9187 74.7429C84.7925 75.0405 83.8271 75.338 83.0226 75.338C79.3221 75.338 76.5869 74.4453 74.9779 72.5112C73.369 70.7258 72.5645 67.8989 72.5645 64.1794C72.5645 60.6086 73.8517 57.633 76.426 55.1037C79.0003 52.5744 82.2182 51.3841 85.7578 51.3841C87.045 51.3841 88.6539 51.6817 90.4238 52.4256C92.5154 53.1695 93.6416 54.211 93.6416 55.4012C93.6416 55.8476 93.4807 56.1452 93.159 56.4427C92.9981 57.0378 92.8372 57.9305 92.8372 59.1208C92.6763 60.311 92.6763 61.9476 92.6763 64.0306C92.6763 65.816 92.8372 67.3038 92.9981 68.3453C93.1589 68.9404 93.6416 70.2794 94.4461 72.2136C94.607 72.5112 94.7679 72.8087 94.9288 73.4039L95.0897 73.7014C95.0897 74.2966 94.9288 74.7429 94.4461 75.1893C93.9634 75.6356 93.6416 75.6356 93.159 75.6356ZM88.1712 60.4598C88.1712 59.8647 88.1712 59.1208 88.3321 58.3769C88.493 57.633 88.493 56.8891 88.6539 55.9964C88.0103 55.6988 87.5277 55.55 87.2059 55.4012C86.7232 55.2524 86.4014 55.2525 86.2405 55.2525C83.8271 55.2525 81.7355 56.1451 79.9656 58.0793C78.1958 59.8647 77.3913 62.0964 77.3913 64.4769C77.3913 66.8575 77.874 68.6429 78.6785 69.8331C79.483 71.0234 80.931 71.6185 82.7008 71.6185C84.1489 71.6185 85.436 71.3209 86.5623 70.8746C87.2059 70.577 87.8494 69.9819 88.9757 69.238C88.493 65.2208 88.1712 62.394 88.1712 60.4598Z" fill="#333333"/>
<path d="M110.375 75.0405C107.961 75.0405 105.709 74.5941 103.778 73.7014C103.295 74.4454 102.652 74.7429 102.008 74.7429C101.365 74.7429 100.882 74.5941 100.56 74.1478C100.238 73.7014 99.9165 73.2551 99.9165 72.66C99.9165 72.2136 99.9165 71.7673 99.9165 71.0234C99.9165 70.2794 99.9165 69.6843 99.9165 69.3868C99.9165 67.8989 99.9165 65.5184 99.7556 62.394C99.5947 59.2696 99.5947 57.0378 99.5947 55.4012C99.5947 54.3597 99.5947 52.2768 99.5947 49.3012C99.5947 46.3255 99.5947 44.3913 99.5947 43.2011C99.5947 42.3084 99.7556 41.5645 100.238 40.8206C100.721 39.9279 101.525 39.4815 102.33 39.4815C103.456 39.4815 104.1 40.0767 104.1 41.4157C104.1 41.5645 104.1 41.8621 103.939 42.3084C103.778 42.7547 103.778 43.0523 103.778 43.2011V47.9621V53.4671C105.065 52.5744 106.513 51.9792 107.639 51.5329C108.927 51.0865 110.053 50.9378 111.179 50.9378C114.558 50.9378 117.293 52.128 119.385 54.5085C121.315 56.7403 122.281 59.5671 122.281 62.8403C122.281 66.1135 121.155 68.9404 118.741 71.3209C116.328 73.7015 113.914 75.0405 110.375 75.0405ZM111.34 55.4012C110.053 55.4012 108.766 55.6988 107.318 56.4427C106.674 56.7403 105.548 57.4842 103.939 58.6744V62.394V65.816V69.3868C104.743 69.6843 105.709 70.1307 107.157 70.577C108.122 70.8746 109.248 71.0234 110.375 71.0234C112.627 71.0234 114.558 70.2794 116.006 68.7916C117.454 67.3038 118.258 65.5184 118.258 63.2867C118.258 61.055 117.615 59.2696 116.489 57.9305C115.201 56.1451 113.432 55.4012 111.34 55.4012Z" fill="#333333"/>
<path d="M143.841 55.55C143.519 55.55 143.197 55.55 142.714 55.55C142.232 55.55 141.91 55.55 141.588 55.55C141.266 55.55 140.14 55.6988 138.37 55.8476L138.853 68.7916V69.6843V70.7258C138.853 73.8502 138.048 75.4868 136.439 75.4868C135.796 75.4868 135.313 75.3381 134.831 74.8917C134.348 74.4454 134.187 73.999 134.187 73.4039C134.187 72.8088 134.187 72.0649 134.187 70.8746C134.187 69.6843 134.187 68.9404 134.187 68.3453L133.704 55.55C132.578 55.55 130.808 55.4012 128.395 55.2525C126.947 55.1037 126.303 54.3598 126.303 53.0207C126.303 52.4256 126.464 51.8305 126.947 51.3841C127.429 50.9378 127.912 50.789 128.556 50.789L133.543 51.0866C133.543 50.3426 133.543 49.3012 133.382 48.1109C133.382 46.9207 133.222 46.028 133.222 45.4328C133.222 44.8377 133.382 44.2426 133.865 43.945C134.348 43.6474 134.831 43.3499 135.474 43.3499C136.922 43.3499 137.727 44.3914 137.888 46.6231C137.888 47.2182 137.888 47.8134 137.888 48.5573V49.7475V51.0866C139.818 50.789 140.944 50.789 141.266 50.789C142.875 50.789 144.001 50.789 144.484 50.9378C145.45 51.2353 145.932 51.9793 145.932 53.0207C145.932 53.6159 145.771 54.211 145.289 54.6573C144.967 55.4012 144.484 55.55 143.841 55.55Z" fill="#333333"/>
</svg>
