<svg width="143" height="137" viewBox="0 0 143 137" fill="none" xmlns="http://www.w3.org/2000/svg">
<path d="M1.49645 30.0021C1.97913 11.5531 14.0462 0.69205 33.997 0.543268C55.7177 0.394486 77.4384 0.394479 98.9982 0.245697C112.031 0.245697 121.523 5.30429 127.637 16.0166C128.12 16.9093 128.442 18.0996 129.085 18.6947C143.566 29.8534 142.922 44.8804 142.6 60.2049C142.279 74.488 142.761 88.9199 142.6 103.352C142.44 123.289 128.281 136.381 106.721 136.53C83.3915 136.679 60.0619 136.679 36.8931 136.53C15.0115 136.381 0.852879 122.991 0.852879 102.757C0.691985 90.8541 1.33557 68.2392 1.33557 68.2392C1.33557 68.2392 1.17466 42.3511 1.49645 30.0021ZM66.1758 108.113C77.4384 108.113 88.701 108.262 99.9636 108.113C115.088 107.815 126.028 98.2932 126.35 84.3077C126.833 65.7099 126.833 47.1121 126.35 28.5143C126.028 14.9751 115.088 5.00673 100.607 4.70916C77.7602 4.4116 55.0742 4.4116 32.2272 4.85794C16.7814 5.15551 6.64505 14.6776 6.32327 28.9607C5.84058 47.2609 5.84058 65.7099 6.32327 84.0101C6.80595 98.5907 17.4249 107.815 33.1926 108.113C44.1333 108.262 55.235 108.113 66.1758 108.113ZM7.93221 101.715C7.77131 118.676 18.7121 129.686 33.997 129.984C59.0965 130.281 84.196 130.281 109.456 129.984C113.64 129.984 117.823 128.198 122.65 127.008C119.271 120.611 116.697 115.552 114.605 111.386C105.434 111.981 97.5502 112.576 89.6664 112.725C75.8295 112.874 61.8317 112.725 47.9948 112.725C33.997 112.874 19.8384 114.362 7.93221 101.715ZM134.234 34.168C132.947 34.3168 132.142 34.3168 131.177 34.4656C131.177 36.8461 131.177 39.2266 131.177 41.4584C131.177 54.8488 131.016 68.2392 131.177 81.4808C131.338 90.4077 128.603 97.9956 122.006 104.542C120.719 105.881 119.593 108.559 120.236 110.047C121.845 114.362 124.58 118.379 127.155 123.14C134.073 117.337 136.326 110.791 136.326 103.352C136.326 84.3076 136.486 65.2635 136.165 46.2194C136.165 42.2023 134.878 38.1852 134.234 34.168Z" fill="black"/>
<path d="M7.93219 101.715C19.6775 114.362 33.997 112.874 47.8339 112.725C61.6708 112.725 75.6686 112.874 89.5055 112.725C97.3893 112.576 105.434 111.832 114.444 111.386C116.536 115.552 119.11 120.61 122.489 127.008C117.662 128.198 113.479 129.835 109.295 129.984C84.196 130.281 59.0965 130.281 33.8361 129.984C18.7121 129.835 7.93219 118.676 7.93219 101.715Z" fill="#B5EFED"/>
<path d="M134.234 34.168C134.878 38.1852 136.165 42.2023 136.165 46.2194C136.326 65.2635 136.326 84.3076 136.326 103.352C136.326 110.791 134.073 117.337 127.155 123.14C124.58 118.379 122.006 114.362 120.236 110.047C119.593 108.559 120.719 105.732 122.006 104.542C128.603 97.9956 131.338 90.4077 131.177 81.4808C131.016 68.0904 131.177 54.7 131.177 41.4584C131.177 39.0778 131.177 36.6973 131.177 34.4656C132.142 34.3168 133.108 34.3168 134.234 34.168Z" fill="white" fill-opacity="0.86"/>
<path d="M125.224 28.9606C124.902 15.5702 114.122 5.7506 99.9636 5.60182C77.5993 5.30426 55.2351 5.30426 32.7099 5.75061C17.5858 6.04818 7.6104 15.4214 7.28862 29.407C6.80593 47.4096 6.80593 65.4123 7.28862 83.5637C7.6104 97.9956 18.0685 106.923 33.6752 107.22C44.4551 107.369 55.235 107.22 66.0149 107.22C77.1166 107.22 88.2183 107.369 99.1591 107.22C114.122 106.923 124.741 97.5493 125.063 83.8613C125.707 65.5611 125.707 47.2609 125.224 28.9606Z" fill="white"/>
<path d="M74.3815 73.4465C73.2553 73.4465 72.6117 72.8514 72.129 71.8099C71.8072 70.6197 71.4854 68.9831 71.1636 66.7513C70.8418 64.6684 70.6809 62.883 70.6809 61.544C70.6809 61.0976 70.6809 60.6513 70.6809 59.7586C70.6809 58.8659 70.6809 58.4195 70.6809 57.9732C70.6809 55.2951 69.8765 53.8073 68.4284 53.8073C66.4977 53.8073 64.7279 54.7 63.1189 56.3366C62.3145 57.2293 61.1882 58.8659 59.7402 61.2464C59.7402 66.7513 59.4184 70.0245 58.9357 71.066C58.453 71.9587 57.8095 72.4051 56.8441 72.4051C56.2005 72.4051 55.5569 72.2563 55.0742 71.8099C54.5916 71.3636 54.2698 70.9172 54.2698 70.3221C54.2698 70.1733 54.2698 69.727 54.4307 69.4294C54.5916 69.1319 54.5916 67.9416 54.7525 66.305V63.0318V46.9633C54.9134 45.1779 54.9133 43.9877 54.9133 43.3925C54.9133 42.6486 54.9134 41.9047 54.7525 41.3096C54.5916 40.7144 54.5916 39.9705 54.5916 39.2266C54.5916 38.6315 54.7525 38.1851 55.2351 37.7388C55.7178 37.2924 56.2005 37.1437 56.8441 37.1437C58.1312 37.1437 58.9357 37.7388 59.0966 39.0778C59.4184 40.4169 59.4184 41.7559 59.4184 42.9462C59.4184 44.434 59.4184 46.0706 59.2575 47.7072C59.0966 49.3438 59.0966 50.8316 59.0966 52.4682V54.4024C60.3837 52.7658 61.8318 51.5755 63.2798 50.8316C64.7279 50.0877 66.3368 49.6414 67.9458 49.6414C70.5201 49.6414 72.2899 50.3853 73.2553 52.0219C73.8988 53.0634 74.3815 54.9975 74.3815 57.6756L74.5424 61.8415L75.0251 66.305C75.186 67.9416 75.5078 69.4294 75.8295 70.7684C75.8295 71.066 75.9904 71.2148 75.9904 71.3636C75.9904 71.9587 75.8296 72.405 75.3469 72.8514C74.8642 73.2977 75.0251 73.4465 74.3815 73.4465Z" fill="#333333"/>
</svg>
