<svg width="379" height="28" viewBox="0 0 379 28" fill="none" xmlns="http://www.w3.org/2000/svg">
<g clip-path="url(#clip0_20_61)">
<path d="M14.4 20.6H13.7L10.1 11.1L6.5 20.6H5.8L2.1 11.1C1.7 9.99998 1.4 9.39998 1.2 9.09998C1 8.79998 0.6 8.79998 0 8.79998V8.09998H5.5V8.79998C4.9 8.79998 4.5 8.89998 4.2 8.99998C3.9 9.09998 3.9 9.29998 3.9 9.59998C3.9 9.79998 4.1 10.4 4.5 11.3L6.9 17.7L10.6 8.09998H11.2L14.8 17.7L17.4 10.9C17.7 10.2 17.8 9.69998 17.8 9.59998C17.8 9.09998 17.3 8.89998 16.3 8.79998V8.09998H20.2V8.79998C19.7 8.79998 19.4 8.89998 19.1 9.09998C18.8 9.29998 18.6 9.69998 18.4 10.2L18.1 11L14.4 20.6Z" fill="#333333"/>
<path d="M32 12.2H23.6C23.6 12.8 23.5 13.2 23.5 13.5C23.5 15.6 23.8 17.2 24.5 18.3C25.2 19.4 26.1 19.9 27.5 19.9C29.3 19.9 30.5 19.1 31.3 17.5H32C31.7 18.5 31.1 19.3 30.1 19.8C29.1 20.3 28.2 20.6 27.1 20.6C26.1 20.6 25.1 20.3 24.2 19.8C23.3 19.3 22.6 18.6 22 17.6C21.4 16.6 21.1 15.5 21.1 14.2C21.1 12.3 21.7 10.7 22.8 9.49998C23.9 8.29998 25.3 7.59998 27 7.59998C28.6 7.59998 29.8 8.09998 30.6 8.99998C31.4 9.89998 31.9 11.1 32 12.2ZM29.4 11.6C29.4 11.4 29.4 11.2 29.4 11C29.4 10.1 29.1 9.49998 28.6 8.99998C28.1 8.49998 27.5 8.29998 26.7 8.29998C24.9 8.29998 23.9 9.39998 23.5 11.6H29.4Z" fill="#333333"/>
<path d="M36 20.6H35.4V4.6C35.4 3.4 35.4 2.7 35.3 2.3C35.2 1.9 35.1 1.7 34.8 1.5C34.5 1.3 34.1 1.3 33.4 1.3V0.6C34 0.6 34.7 0.5 35.5 0.4C36.3 0.3 36.9 0.1 37.2 0H37.5V9.5C38.2 8.9 38.9 8.4 39.6 8.1C40.3 7.8 41 7.6 41.7 7.6C43.4 7.6 44.8 8.2 45.9 9.4C47 10.6 47.6 12.1 47.6 14C47.6 15.9 47 17.4 45.9 18.7C44.8 20 43.3 20.6 41.5 20.6C40.6 20.6 39.8 20.4 39.2 20C38.6 19.6 38 19.1 37.5 18.3C36.9 19 36.4 19.8 36 20.6ZM37.5 10.4V15.1C37.5 16.3 37.6 17.2 37.7 17.7C37.8 18.2 38.2 18.7 38.9 19.2C39.6 19.7 40.2 19.9 41.1 19.9C42.4 19.9 43.4 19.4 44.1 18.3C44.8 17.2 45.2 15.8 45.2 13.8C45.2 12 44.9 10.7 44.2 9.7C43.5 8.7 42.6 8.3 41.4 8.3C40.7 8.3 40.1 8.5 39.4 8.8C38.7 9.1 38.2 9.7 37.5 10.4Z" fill="#333333"/>
<path d="M67.5 9.4V4.7C67.5 3.4 67.5 2.6 67.4 2.3C67.3 2 67.3 1.7 67 1.6C66.7 1.5 66.3 1.3 65.7 1.3H65.4V0.6C66.6 0.6 67.9 0.4 69.3 0H69.6V16.1C69.6 17.5 69.6 18.3 69.7 18.6C69.8 18.9 69.9 19.1 70.2 19.3C70.5 19.5 70.9 19.5 71.6 19.5V20.2C70.2 20.2 68.9 20.4 67.8 20.6C67.7 20.1 67.6 19.4 67.6 18.4C66.9 19.1 66.1 19.7 65.4 20C64.7 20.3 63.8 20.5 63 20.5C61.4 20.5 60.1 19.9 59 18.6C57.9 17.3 57.3 15.8 57.3 14.1C57.3 12.1 57.9 10.6 59 9.4C60.1 8.2 61.5 7.6 63.1 7.6C63.9 7.6 64.7 7.7 65.4 8C66.1 8.3 66.9 8.8 67.5 9.4ZM67.5 10.3C66.9 9.7 66.2 9.3 65.6 9C65 8.7 64.3 8.6 63.6 8.6C62.5 8.6 61.6 9 60.8 9.9C60 10.8 59.7 12.1 59.7 14.1C59.7 16.1 60.1 17.5 60.8 18.4C61.5 19.3 62.5 19.8 63.6 19.8C64.3 19.8 65 19.6 65.7 19.3C66.4 19 66.9 18.4 67.5 17.7V10.3Z" fill="#333333"/>
<path d="M83.8 12.2H75.4C75.4 12.8 75.3 13.2 75.3 13.5C75.3 15.6 75.6 17.2 76.3 18.3C77 19.4 77.9 19.9 79.3 19.9C81.1 19.9 82.3 19.1 83.1 17.5H83.8C83.5 18.5 82.9 19.3 81.9 19.8C80.9 20.3 80 20.6 78.9 20.6C77.9 20.6 76.9 20.3 76 19.8C75.1 19.3 74.4 18.6 73.8 17.6C73.2 16.6 73 15.6 73 14.3C73 12.4 73.6 10.8 74.7 9.60001C75.8 8.40001 77.2 7.70001 78.9 7.70001C80.5 7.70001 81.7 8.20001 82.5 9.10001C83.3 10 83.8 11.1 83.8 12.2ZM81.3 11.6C81.3 11.4 81.3 11.2 81.3 11C81.3 10.1 81 9.50001 80.5 9.00001C80 8.50001 79.4 8.30001 78.6 8.30001C76.8 8.30001 75.8 9.40001 75.4 11.6H81.3Z" fill="#333333"/>
<path d="M92 20.6H91.2L86.9 11C86.5 10.1 86.1 9.49997 85.9 9.19998C85.7 8.89998 85.3 8.79998 84.7 8.79998V8.09998H90.1V8.79998C89.5 8.79998 89.1 8.79997 88.9 8.89997C88.7 8.99997 88.6 9.19998 88.6 9.49998C88.6 9.69998 88.8 10.2 89.2 11.1L92.4 18.4L95.3 11.9C95.8 10.9 96 10.2 96 9.89997C96 9.19997 95.5 8.89997 94.5 8.89997V8.09998H98.5V8.79998C98 8.79998 97.6 8.99997 97.2 9.39997C96.8 9.79997 96.4 10.7 95.8 12L92 20.6Z" fill="#333333"/>
<path d="M109.9 12.2H101.5C101.5 12.8 101.4 13.2 101.4 13.5C101.4 15.6 101.7 17.2 102.4 18.3C103.1 19.4 104 19.9 105.4 19.9C107.2 19.9 108.4 19.1 109.2 17.5H109.9C109.6 18.5 109 19.3 108 19.8C107 20.3 106.1 20.6 105 20.6C104 20.6 103 20.3 102.1 19.8C101.2 19.3 100.5 18.6 99.9 17.6C99.3 16.6 99 15.6 99 14.3C99 12.4 99.6 10.8 100.7 9.60001C101.8 8.40001 103.2 7.70001 104.9 7.70001C106.5 7.70001 107.7 8.20001 108.5 9.10001C109.3 10 109.8 11.1 109.9 12.2ZM107.3 11.6C107.3 11.4 107.3 11.2 107.3 11C107.3 10.1 107 9.50001 106.5 9.00001C106 8.50001 105.4 8.30001 104.6 8.30001C102.8 8.30001 101.8 9.40001 101.4 11.6H107.3Z" fill="#333333"/>
<path d="M115.6 0V16C115.6 17.3 115.6 18.1 115.7 18.4C115.8 18.7 115.9 19 116.1 19.2C116.3 19.4 116.8 19.5 117.4 19.5H117.8V20.2H111.4V19.5H111.8C112.4 19.5 112.8 19.4 113.1 19.3C113.4 19.2 113.5 18.9 113.5 18.6C113.5 18.3 113.6 17.5 113.6 16.1V4.2C113.6 2.9 113.5 2.1 113.3 1.8C113.1 1.5 112.5 1.3 111.7 1.3V0.6C112.3 0.6 113 0.5 113.8 0.4C114.6 0.3 115.2 0.1 115.5 0H115.6V0Z" fill="#333333"/>
<path d="M119.3 14.1C119.3 12.3 119.9 10.7 121.1 9.49998C122.3 8.29998 123.8 7.59998 125.6 7.59998C127.4 7.59998 128.9 8.19998 130.2 9.49998C131.5 10.8 132 12.3 132 14.1C132 16.1 131.4 17.7 130.1 18.9C128.8 20.1 127.3 20.6 125.6 20.6C123.9 20.6 122.3 20 121.1 18.8C119.9 17.6 119.3 16.1 119.3 14.1ZM121.7 14.2C121.7 16.3 122 17.8 122.7 18.7C123.4 19.6 124.4 20 125.6 20C126.9 20 127.9 19.6 128.5 18.7C129.1 17.8 129.5 16.4 129.5 14.2C129.5 12.1 129.2 10.6 128.5 9.69998C127.8 8.79998 126.8 8.39998 125.6 8.39998C124.3 8.39998 123.3 8.79998 122.7 9.69998C122.1 10.6 121.7 12.1 121.7 14.2Z" fill="#333333"/>
<path d="M136.9 7.70001H137.3C137.5 8.20001 137.5 8.90001 137.5 9.70001C138.1 9.00001 138.8 8.50001 139.5 8.20001C140.2 7.90001 141 7.70001 141.8 7.70001C143.5 7.70001 144.8 8.30001 145.9 9.50001C147 10.7 147.6 12.2 147.6 14.1C147.6 16 147 17.5 145.9 18.8C144.8 20.1 143.3 20.7 141.5 20.7C140.8 20.7 140 20.6 139.4 20.3C138.8 20 138.1 19.6 137.5 19V23.6C137.5 25 137.5 25.8 137.6 26.1C137.7 26.4 137.8 26.6 138.1 26.8C138.4 27 138.8 27 139.5 27V27.7H133.2V27H133.6C134.3 27 134.7 26.9 135 26.7C135.3 26.5 135.3 26.3 135.4 26C135.5 25.7 135.5 24.9 135.5 23.6V12.5C135.5 11.2 135.5 10.4 135.4 10.1C135.3 9.80001 135.2 9.50001 135 9.30001C134.8 9.10001 134.3 9.00001 133.7 9.00001H133.3V8.40001C134.2 8.30001 135.4 8.10001 136.9 7.70001ZM137.5 17.9C138 18.5 138.6 19 139.2 19.4C139.8 19.8 140.4 19.9 141.1 19.9C142.2 19.9 143.2 19.4 144 18.5C144.8 17.6 145.2 16 145.2 14C145.2 12.2 144.8 10.9 144 10C143.2 9.10001 142.3 8.70001 141.2 8.70001C140.5 8.70001 139.9 8.90001 139.3 9.20001C138.7 9.50001 138.1 10.1 137.6 10.8V17.9H137.5Z" fill="#333333"/>
<path d="M160.8 12.2H152.4C152.4 12.8 152.3 13.2 152.3 13.5C152.3 15.6 152.6 17.2 153.3 18.3C154 19.4 154.9 19.9 156.3 19.9C158.1 19.9 159.3 19.1 160.1 17.5H160.8C160.5 18.5 159.9 19.3 158.9 19.8C157.9 20.3 157 20.6 155.9 20.6C154.9 20.6 153.9 20.3 153 19.8C152.1 19.3 151.4 18.6 150.8 17.6C150.2 16.6 149.9 15.5 149.9 14.2C149.9 12.3 150.5 10.7 151.6 9.49998C152.7 8.29998 154.1 7.59998 155.8 7.59998C157.4 7.59998 158.6 8.09998 159.4 8.99998C160.2 9.89998 160.8 11.1 160.8 12.2ZM158.2 11.6C158.2 11.4 158.2 11.2 158.2 11C158.2 10.1 157.9 9.49998 157.4 8.99998C156.9 8.49998 156.3 8.29998 155.5 8.29998C153.7 8.29998 152.7 9.39998 152.3 11.6H158.2Z" fill="#333333"/>
<path d="M166.9 10.7C167.2 9.79998 167.8 9.09998 168.5 8.49998C169.2 7.89998 170 7.59998 170.7 7.59998C171.3 7.59998 171.9 7.79998 172.2 8.19998C172.5 8.59998 172.8 8.99998 172.8 9.39998C172.8 9.69998 172.7 9.89998 172.5 10.1C172.3 10.3 172.1 10.4 171.8 10.4C171.3 10.4 170.9 9.99998 170.7 9.29998C170.5 8.79998 170.3 8.59998 169.9 8.59998C169.5 8.59998 169 8.89998 168.4 9.49998C167.8 10.1 167.4 10.7 167.3 11.3C167.2 11.9 167.1 12.8 167.1 13.8V16C167.1 17.3 167.1 18.1 167.2 18.4C167.3 18.7 167.4 19 167.6 19.2C167.8 19.4 168.3 19.5 168.9 19.5H169.3V20.2H162.9V19.5H163.2C163.8 19.5 164.2 19.4 164.5 19.3C164.8 19.2 164.9 18.9 164.9 18.6C164.9 18.3 165 17.5 165 16.1V12.7C165 11.4 165 10.6 164.9 10.3C164.8 9.99998 164.7 9.69998 164.5 9.49998C164.3 9.29998 163.8 9.19998 163.2 9.19998H162.9V8.49998C163.8 8.39998 165 8.09998 166.5 7.59998C166.8 8.39998 166.9 9.49998 166.9 10.7Z" fill="#333333"/>
<path d="M193.3 8.09998H199.6V8.79998C198.8 8.99998 198.1 9.39997 197.5 9.89997C196.9 10.4 196.3 11.5 195.7 13C195.2 14.3 194.7 15.2 194.2 15.8C195.2 17.3 196.1 18.3 196.7 18.6C197.3 19 197.9 19.2 198.6 19.2C199.5 19.2 200.2 18.8 200.7 17.9H201.4C201.2 18.7 200.8 19.4 200.1 19.8C199.4 20.3 198.7 20.5 197.8 20.5C195.9 20.5 194.2 19.5 192.8 17.6C191.1 19.5 189.3 20.5 187.4 20.5C186.7 20.5 186 20.4 185.3 20.1C184.6 19.8 184 19.5 183.5 19C183 18.5 182.5 17.9 182.2 17.3C181.9 16.7 181.7 15.9 181.7 15.1C181.7 13.9 182 12.8 182.7 12C183.4 11.2 184.6 10.1 186.6 8.79998C185.5 7.19998 184.9 5.79998 184.9 4.49998C184.9 3.49998 185.3 2.59998 186.1 1.79998C186.9 0.999976 187.9 0.599976 189 0.599976C190.1 0.599976 191 0.899976 191.9 1.49998C192.7 2.09998 193.2 2.89998 193.2 3.79998C193.2 5.29998 191.8 6.79998 189 8.19998C189.9 9.39998 190.7 10.5 191.5 11.7C192.3 12.9 193.1 14 193.9 15.1C194.5 14.3 194.9 13.5 195.2 12.7C195.5 11.9 195.7 11.2 195.7 10.7C195.7 9.59997 194.9 8.89998 193.4 8.79998V8.09998H193.3ZM187 9.49998C186 10.1 185.2 10.9 184.6 11.7C184 12.5 183.8 13.3 183.8 14.1C183.8 15.3 184.3 16.4 185.3 17.5C186.3 18.6 187.4 19.1 188.6 19.1C189.9 19.1 191.2 18.4 192.4 17.1C191.4 15.5 190.4 14.1 189.5 12.8C188.6 11.5 187.7 10.5 187 9.49998ZM188.5 7.79998C190.5 6.69998 191.4 5.39998 191.4 4.09998C191.4 3.69998 191.3 3.39998 191.2 2.99998C191.1 2.59998 190.9 2.39998 190.7 2.19998C190.5 1.99998 190.2 1.79998 189.9 1.69998C189.6 1.59998 189.3 1.49998 188.9 1.49998C188.2 1.49998 187.6 1.69998 187.2 2.19998C186.8 2.69998 186.6 3.19998 186.6 3.89998C186.7 4.79998 187.3 6.09998 188.5 7.79998Z" fill="#333333"/>
<path d="M220.3 17.2H220.9C220.2 19.5 218.6 20.6 215.9 20.6C214.2 20.6 212.8 20 211.6 18.9C210.4 17.8 209.8 16.2 209.8 14.3C209.8 12.3 210.4 10.7 211.7 9.50001C213 8.30001 214.4 7.70001 216.2 7.70001C217.2 7.70001 218.2 7.90001 219.1 8.40001C220 8.90001 220.4 9.40001 220.4 10.1C220.4 10.3 220.3 10.6 220.2 10.8C220.1 11 219.8 11.1 219.5 11.1C218.9 11.1 218.5 10.7 218.3 10C218.2 9.40001 218 9.00001 217.8 8.80001C217.5 8.60001 217.1 8.50001 216.3 8.50001C215 8.50001 214 9.00001 213.3 9.90001C212.6 10.8 212.3 12.2 212.3 14C212.3 15.9 212.7 17.4 213.4 18.4C214.1 19.4 215.2 20 216.6 20C218.5 19.8 219.8 19 220.3 17.2Z" fill="#333333"/>
<path d="M222.8 14.1C222.8 12.3 223.4 10.7 224.6 9.49998C225.8 8.29998 227.3 7.59998 229.1 7.59998C230.9 7.59998 232.4 8.19998 233.7 9.49998C235 10.8 235.5 12.3 235.5 14.1C235.5 16.1 234.9 17.7 233.6 18.9C232.3 20.1 230.8 20.6 229.1 20.6C227.4 20.6 225.8 20 224.6 18.8C223.4 17.6 222.8 16.1 222.8 14.1ZM225.2 14.2C225.2 16.3 225.5 17.8 226.2 18.7C226.9 19.6 227.9 20 229.1 20C230.4 20 231.4 19.6 232 18.7C232.6 17.8 233 16.4 233 14.2C233 12.1 232.7 10.6 232 9.69998C231.3 8.79998 230.3 8.39998 229.1 8.39998C227.8 8.39998 226.8 8.79998 226.2 9.69998C225.6 10.6 225.2 12.1 225.2 14.2Z" fill="#333333"/>
<path d="M240.8 7.70001H241.2C241.4 8.30001 241.6 9.10001 241.6 10.2C242.3 9.40001 243 8.70001 243.8 8.30001C244.6 7.90001 245.4 7.70001 246.2 7.70001C247.2 7.70001 247.9 7.90001 248.6 8.30001C249.3 8.70001 249.6 9.20001 249.8 9.80001C250 10.4 250.1 11.2 250.1 12.3V16C250.1 17.4 250.1 18.2 250.2 18.5C250.3 18.8 250.4 19 250.7 19.2C251 19.4 251.4 19.4 252.1 19.4V20.1H246V19.4H246.3C247 19.4 247.5 19.3 247.7 19.1C247.9 18.9 248 18.7 248.1 18.4C248.2 18.1 248.1 17.3 248.1 16V12.1C248.1 11.2 248.1 10.5 248 10.1C247.9 9.70001 247.7 9.30001 247.3 9.00001C246.9 8.70001 246.4 8.50001 245.8 8.50001C245.1 8.50001 244.4 8.70001 243.8 9.10001C243.2 9.50001 242.5 10.2 242 11V16C242 17.4 242 18.2 242.1 18.5C242.2 18.8 242.3 19 242.6 19.2C242.9 19.4 243.3 19.4 244 19.4V20.1H237.9V19.4C238.6 19.4 239 19.3 239.3 19.2C239.6 19.1 239.7 18.9 239.8 18.6C239.9 18.3 239.9 17.5 239.9 16V12.4C239.9 11 239.9 10.2 239.8 9.90001C239.7 9.60001 239.6 9.40001 239.3 9.20001C239 9.00001 238.2 9.00001 237.5 9.00001V8.30001C238.6 8.20001 239.7 8.00001 240.8 7.70001Z" fill="#333333"/>
<path d="M260.8 8.79999H257.2V16.1C257.2 17.2 257.2 18 257.3 18.3C257.4 18.6 257.6 19 257.9 19.2C258.2 19.4 258.6 19.6 258.9 19.6C259.6 19.6 260.2 19.2 260.7 18.4L261.2 18.7C260.9 19.3 260.5 19.8 259.9 20.2C259.3 20.6 258.7 20.7 258.1 20.7C257.4 20.7 256.8 20.5 256.2 20.1C255.6 19.7 255.3 19.2 255.2 18.6C255.1 18 255 17.1 255 15.7V8.79999H253.3V8.09999C254.1 8.09999 254.8 7.69999 255.5 7.09999C256.2 6.49999 256.5 5.49999 256.7 4.29999H257.2V8.09999H260.8V8.79999Z" fill="#333333"/>
<path d="M273.3 12.2H264.9C264.9 12.8 264.8 13.2 264.8 13.5C264.8 15.6 265.1 17.2 265.8 18.3C266.5 19.4 267.4 19.9 268.8 19.9C270.6 19.9 271.8 19.1 272.6 17.5H273.3C273 18.5 272.4 19.3 271.4 19.8C270.4 20.3 269.5 20.6 268.4 20.6C267.4 20.6 266.4 20.3 265.5 19.8C264.6 19.3 263.9 18.6 263.3 17.6C262.7 16.6 262.4 15.5 262.4 14.2C262.4 12.3 263 10.7 264.1 9.49998C265.2 8.29998 266.6 7.59998 268.3 7.59998C269.9 7.59998 271.1 8.09998 271.9 8.99998C272.7 9.89998 273.3 11.1 273.3 12.2ZM270.7 11.6C270.7 11.4 270.7 11.2 270.7 11C270.7 10.1 270.4 9.49998 269.9 8.99998C269.4 8.49998 268.8 8.29998 268 8.29998C266.2 8.29998 265.2 9.39998 264.8 11.6H270.7Z" fill="#333333"/>
<path d="M278.6 7.70001H279C279.2 8.30001 279.4 9.10001 279.4 10.2C280.1 9.40001 280.8 8.70001 281.6 8.30001C282.4 7.90001 283.2 7.70001 284 7.70001C285 7.70001 285.7 7.90001 286.4 8.30001C287.1 8.70001 287.4 9.20001 287.6 9.80001C287.8 10.4 287.9 11.2 287.9 12.3V16C287.9 17.4 287.9 18.2 288 18.5C288.1 18.8 288.2 19 288.5 19.2C288.8 19.4 289.2 19.4 289.9 19.4V20.1H283.8V19.4H284.1C284.8 19.4 285.3 19.3 285.5 19.1C285.7 18.9 285.8 18.7 285.9 18.4C286 18.1 285.9 17.3 285.9 16V12.1C285.9 11.2 285.9 10.5 285.8 10.1C285.7 9.70001 285.5 9.30001 285.1 9.00001C284.7 8.70001 284.2 8.50001 283.6 8.50001C282.9 8.50001 282.2 8.70001 281.6 9.10001C281 9.50001 280.3 10.2 279.8 11V16C279.8 17.4 279.8 18.2 279.9 18.5C280 18.8 280.1 19 280.4 19.2C280.7 19.4 281.1 19.4 281.8 19.4V20.1H275.7V19.4C276.4 19.4 276.8 19.3 277.1 19.2C277.4 19.1 277.5 18.9 277.6 18.6C277.7 18.3 277.7 17.5 277.7 16V12.4C277.7 11 277.7 10.2 277.6 9.90001C277.5 9.60001 277.4 9.40001 277.1 9.20001C276.8 9.00001 276 9.00001 275.3 9.00001V8.30001C276.4 8.20001 277.5 8.00001 278.6 7.70001Z" fill="#333333"/>
<path d="M298.6 8.79999H295V16.1C295 17.2 295 18 295.1 18.3C295.2 18.6 295.4 19 295.7 19.2C296 19.4 296.4 19.6 296.7 19.6C297.4 19.6 298 19.2 298.5 18.4L299 18.7C298.7 19.3 298.3 19.8 297.7 20.2C297.1 20.6 296.5 20.7 295.9 20.7C295.2 20.7 294.6 20.5 294 20.1C293.4 19.7 293.1 19.2 293 18.6C292.9 18 292.8 17.1 292.8 15.7V8.79999H291.1V8.09999C291.9 8.09999 292.6 7.69999 293.3 7.09999C294 6.49999 294.3 5.49999 294.5 4.29999H295V8.09999H298.6V8.79999Z" fill="#333333"/>
<path d="M321 20.6H320.3L316.7 11.1L313.1 20.6H312.5L308.8 11.1C308.4 9.99998 308.1 9.39998 307.9 9.19998C307.7 8.99998 307.3 8.89997 306.7 8.89997V8.09998H312.2V8.79998C311.6 8.79998 311.2 8.89998 310.9 8.99998C310.6 9.09998 310.6 9.29998 310.6 9.59998C310.6 9.79998 310.8 10.4 311.2 11.3L313.6 17.7L317.3 8.09998H317.9L321.5 17.7L324.1 10.9C324.4 10.2 324.5 9.69998 324.5 9.59998C324.5 9.09998 324 8.89998 323 8.79998V8.09998H326.9V8.79998C326.4 8.79998 326.1 8.89998 325.8 9.09998C325.5 9.29998 325.3 9.69998 325.1 10.2L324.8 11L321 20.6Z" fill="#333333"/>
<path d="M331.9 10.7C332.2 9.79998 332.8 9.09998 333.5 8.49998C334.2 7.89998 335 7.59998 335.7 7.59998C336.3 7.59998 336.9 7.79998 337.2 8.19998C337.5 8.59998 337.8 8.99998 337.8 9.39998C337.8 9.69998 337.7 9.89998 337.5 10.1C337.3 10.3 337.1 10.4 336.8 10.4C336.3 10.4 335.9 9.99998 335.7 9.29998C335.5 8.79998 335.3 8.59998 334.9 8.59998C334.5 8.59998 334 8.89998 333.4 9.49998C332.8 10.1 332.4 10.7 332.3 11.3C332.2 11.9 332.1 12.8 332.1 13.8V16C332.1 17.3 332.1 18.1 332.2 18.4C332.2 18.7 332.4 19 332.6 19.2C332.8 19.4 333.3 19.5 333.9 19.5H334.3V20.2H327.9V19.5H328.2C328.8 19.5 329.2 19.4 329.5 19.3C329.7 19.1 329.9 18.9 329.9 18.6C329.9 18.3 330 17.5 330 16.1V12.7C330 11.4 330 10.6 329.9 10.3C329.8 9.99998 329.7 9.69998 329.5 9.49998C329.3 9.29998 328.8 9.19998 328.2 9.19998H327.9V8.49998C328.8 8.39998 330 8.09998 331.5 7.59998C331.8 8.39998 331.9 9.49998 331.9 10.7Z" fill="#333333"/>
<path d="M342.7 7.7V16C342.7 17.3 342.7 18.1 342.8 18.4C342.9 18.7 343 19 343.2 19.2C343.4 19.4 343.9 19.5 344.5 19.5H344.8V20.2H338.3V19.5H338.8C339.5 19.5 339.9 19.4 340.2 19.2C340.4 19 340.5 18.8 340.6 18.5C340.7 18.2 340.7 17.4 340.7 16.1V12.5C340.7 11.1 340.6 10.2 340.5 9.9C340.4 9.6 340.2 9.4 340 9.3C339.8 9.2 339.4 9.2 338.9 9.2H338.5V8.4C340.2 8.2 341.6 8 342.5 7.6H342.7V7.7ZM339.9 1.5C339.9 1.1 340 0.7 340.3 0.4C340.6 0.1 341 0 341.4 0C341.8 0 342.2 0.2 342.5 0.5C342.8 0.8 342.9 1.2 342.9 1.6C342.9 2 342.8 2.4 342.5 2.7C342.2 3 341.9 3.2 341.4 3.2C340.9 3.2 340.6 3 340.3 2.7C340 2.4 339.9 2 339.9 1.5Z" fill="#333333"/>
<path d="M353.6 8.79999H350V16.1C350 17.2 350 18 350.1 18.3C350.2 18.6 350.4 19 350.7 19.2C351 19.4 351.4 19.6 351.7 19.6C352.4 19.6 353 19.2 353.5 18.4L354 18.7C353.7 19.3 353.2 19.8 352.7 20.2C352.1 20.5 351.5 20.7 350.9 20.7C350.2 20.7 349.6 20.5 349 20.1C348.4 19.7 348.1 19.2 348 18.6C347.9 18 347.8 17.1 347.8 15.7V8.79999H346.1V8.09999C346.9 8.09999 347.6 7.69999 348.3 7.09999C349 6.49999 349.3 5.49999 349.5 4.29999H350V8.09999H353.6V8.79999Z" fill="#333333"/>
<path d="M366.1 12.2H357.7C357.7 12.8 357.6 13.2 357.6 13.5C357.6 15.6 357.9 17.2 358.6 18.3C359.3 19.4 360.2 19.9 361.6 19.9C363.4 19.9 364.6 19.1 365.4 17.5H366.1C365.8 18.5 365.2 19.3 364.2 19.8C363.2 20.3 362.3 20.6 361.2 20.6C360.2 20.6 359.2 20.3 358.3 19.8C357.4 19.3 356.7 18.6 356.1 17.6C355.5 16.6 355.2 15.5 355.2 14.2C355.2 12.3 355.8 10.7 356.9 9.49998C358 8.29998 359.4 7.59998 361.1 7.59998C362.7 7.59998 363.9 8.09998 364.7 8.99998C365.5 9.89998 366.1 11.1 366.1 12.2ZM363.6 11.6C363.6 11.4 363.6 11.2 363.6 11C363.6 10.1 363.3 9.49998 362.8 8.99998C362.3 8.49998 361.7 8.29998 360.9 8.29998C359.1 8.29998 358.1 9.39998 357.7 11.6H363.6Z" fill="#333333"/>
<path d="M372.3 10.7C372.6 9.79998 373.2 9.09998 373.9 8.49998C374.6 7.89998 375.4 7.59998 376.1 7.59998C376.7 7.59998 377.3 7.79998 377.6 8.19998C377.9 8.59998 378.2 8.99998 378.2 9.39998C378.2 9.69998 378.1 9.89998 377.9 10.1C377.7 10.3 377.5 10.4 377.2 10.4C376.7 10.4 376.3 9.99998 376.1 9.29998C375.9 8.79998 375.7 8.59998 375.3 8.59998C374.9 8.59998 374.4 8.89998 373.8 9.49998C373.2 10.1 372.8 10.7 372.7 11.3C372.6 11.9 372.5 12.8 372.5 13.8V16C372.5 17.3 372.5 18.1 372.6 18.4C372.6 18.7 372.8 19 373 19.2C373.2 19.4 373.7 19.5 374.3 19.5H374.7V20.2H368.3V19.5H368.6C369.2 19.5 369.6 19.4 369.9 19.3C370.1 19.1 370.3 18.9 370.3 18.6C370.3 18.3 370.4 17.5 370.4 16.1V12.7C370.4 11.4 370.4 10.6 370.3 10.3C370.2 9.99998 370.1 9.69998 369.9 9.49998C369.7 9.29998 369.2 9.19998 368.6 9.19998H368.3V8.49998C369.2 8.39998 370.4 8.09998 371.9 7.59998C372.1 8.39998 372.2 9.49998 372.3 10.7Z" fill="#333333"/>
</g>
<defs>
<clipPath id="clip0_20_61">
<rect width="378.1" height="27.5" fill="white"/>
</clipPath>
</defs>
</svg>
