<svg width="511" height="182" viewBox="0 0 511 182" fill="none" xmlns="http://www.w3.org/2000/svg">
<path d="M198.719 117.799C198.268 119.617 198.042 121.435 198.042 123.132C198.042 127.737 198.945 131.251 200.863 133.554C202.669 135.857 205.49 137.069 209.213 137.069C212.937 137.069 216.773 135.978 220.61 133.675C224.446 131.373 228.395 127.979 232.458 123.374H243.29C239.002 130.282 232.909 135.978 225.123 140.704C217.337 145.309 208.988 147.733 199.848 147.733C191.949 147.733 185.518 145.915 180.44 142.159C175.362 138.402 172.88 132.584 172.88 124.707C172.88 111.982 178.635 99.7417 190.257 88.1074C201.879 76.473 214.629 70.6559 228.395 70.6559C234.376 70.6559 238.889 71.8678 241.936 74.2916C244.87 76.7154 246.449 80.23 246.449 85.0776C246.449 92.7126 242.049 99.4993 233.36 105.559C224.446 111.376 212.937 115.497 198.719 117.799ZM200.525 108.589C207.182 107.498 213.05 104.468 218.24 99.3781C223.431 94.2881 226.026 89.3193 226.026 84.4716C226.026 82.6538 225.575 81.3207 224.785 80.3512C223.995 79.5028 222.754 79.0181 221.174 79.0181C217.337 79.0181 213.501 81.6843 209.89 86.8955C206.28 92.1067 203.12 99.3781 200.525 108.589Z" fill="#FCCD04"/>
<path d="M293.953 124.101H302.303C299.821 130.524 295.871 136.099 290.342 140.583C284.813 145.188 278.608 147.37 271.499 147.37C266.76 147.37 263.036 146.279 260.441 143.976C257.733 141.674 256.379 138.644 256.379 134.887C256.379 133.433 257.507 128.464 259.651 120.344L280.639 46.5388C281.654 43.1455 282.105 40.9641 282.105 39.8733C282.105 36.8436 278.833 35.2681 272.289 35.2681L274.771 26.1788C288.086 26.1788 297.677 25.3304 303.544 23.7549H311.33L282.331 125.555C281.428 128.585 280.977 130.403 280.977 131.251C280.977 133.069 281.993 134.039 284.024 134.039C287.07 134.039 290.455 130.767 293.953 124.101Z" fill="#FCCD04"/>
<path d="M347.776 124.101H356.126C353.644 130.524 349.694 136.099 344.165 140.583C338.636 145.188 332.43 147.37 325.322 147.37C320.583 147.37 316.859 146.279 314.264 143.976C311.556 141.674 310.202 138.644 310.202 134.887C310.202 133.433 311.33 128.464 313.474 120.344L334.462 46.5388C335.477 43.1455 335.928 40.9641 335.928 39.8733C335.928 36.8436 332.656 35.2681 326.112 35.2681L328.594 26.1788C341.909 26.1788 351.5 25.3304 357.367 23.7549H365.153L336.154 125.555C335.251 128.585 334.8 130.403 334.8 131.251C334.8 133.069 335.816 134.039 337.847 134.039C340.893 134.039 344.278 130.767 347.776 124.101Z" fill="#FCCD04"/>
<path d="M364.025 114.648C364.025 108.589 365.717 101.923 368.989 94.894C372.375 87.8649 377.565 82.0478 384.674 77.3213C391.782 72.7161 400.245 70.2922 410.062 70.2922C422.248 70.2922 431.275 73.4432 436.917 79.6239C442.672 85.8047 445.493 93.4397 445.493 102.287C445.493 114.527 441.092 125.071 432.291 134.039C423.489 143.007 412.319 147.491 398.553 147.491C388.623 147.491 380.386 144.825 373.729 139.371C367.297 134.039 364.025 125.798 364.025 114.648ZM387.833 123.495C387.833 128.706 388.736 132.584 390.541 135.129C392.347 137.674 395.055 139.007 398.665 139.007C405.436 139.007 410.852 133.554 415.14 122.647C419.427 111.74 421.571 102.529 421.571 95.0152C421.571 89.3192 420.556 85.1987 418.525 82.6537C416.494 80.1087 414.124 78.7756 411.529 78.7756C404.42 78.7756 398.665 84.4716 394.265 95.8635C389.977 107.377 387.833 116.466 387.833 123.495Z" fill="#FCCD04"/>
<path d="M483.744 133.918C483.744 137.674 482.503 140.825 479.908 143.492C477.312 146.158 474.379 147.491 470.881 147.491C467.383 147.491 464.336 146.158 461.854 143.492C459.371 140.825 458.13 137.553 458.13 133.918C458.13 130.161 459.371 126.888 461.854 124.222C464.336 121.556 467.383 120.223 470.881 120.223C474.379 120.223 477.425 121.556 479.908 124.222C482.503 126.888 483.744 130.039 483.744 133.918ZM474.492 106.892L484.647 43.0243C486.678 30.1781 491.755 23.7549 499.654 23.7549C503.039 23.7549 505.634 25.088 507.553 27.7542C509.471 30.4204 510.486 33.2078 510.486 36.2376C510.486 39.8733 509.471 43.9938 507.44 48.7203L483.067 106.892H474.492Z" fill="#FCCD04"/>
<path d="M0.91729 39.025C1.48147 15.514 15.9245 0.243897 37.8148 0.122706C62.6388 -0.119676 87.5756 0.122706 112.512 0.00151489C127.858 -0.119676 138.916 7.03059 146.251 21.4523C147.717 24.2397 149.523 27.0271 151.667 29.3297C159.565 38.0555 163.289 48.5991 163.289 60.7182C163.289 85.4411 163.514 110.285 163.289 135.008C163.063 164.336 146.928 181.667 119.508 181.909C94.3458 182.03 69.0705 182.03 43.9079 181.909C16.4887 181.667 0.240271 164.215 0.0145986 135.008C-0.0982377 119.496 0.465944 55.507 0.91729 39.025ZM74.8251 143.734C87.1243 143.734 99.4234 143.734 111.723 143.734C112.287 143.734 112.964 143.734 113.528 143.734C131.356 143.249 143.768 130.282 143.994 111.255C144.219 86.7742 144.332 62.4148 143.994 37.9343C143.768 19.6344 131.243 6.18225 113.979 5.93987C88.1398 5.69749 62.3003 5.69749 36.4607 6.06106C19.1968 6.18225 6.78478 19.5133 6.55911 38.0555C6.2206 62.536 6.33344 86.8954 6.55911 111.376C6.78478 130.403 19.0839 143.492 37.0249 143.734C49.5498 143.976 62.1874 143.734 74.8251 143.734ZM9.26718 136.826C6.78478 156.944 20.6637 172.82 39.733 173.062C67.6036 173.426 133.726 170.76 140.045 169.184C136.095 160.458 133.161 153.672 130.566 147.733C121.652 148.582 113.754 149.672 105.855 149.794C89.2682 150.157 72.6812 149.915 56.2071 149.915C39.6202 150.036 22.6947 152.46 9.26718 136.826ZM152.795 45.2057C151.892 45.3269 151.102 45.4481 150.2 45.5693C149.974 48.5991 149.636 51.75 149.636 54.7798C149.523 73.2008 150.313 91.743 149.297 110.164C148.846 118.284 146.476 127.131 142.64 134.16C136.434 145.673 136.434 152.823 148.282 164.7C150.877 155.247 154.826 147.127 155.052 138.886C155.842 112.588 155.503 86.1683 155.277 59.7486C155.165 54.7798 153.585 49.9322 152.795 45.2057Z" fill="black"/>
<path d="M9.26712 136.826C22.5818 152.46 39.6201 150.036 56.0942 150.036C72.6811 150.036 89.2681 150.278 105.742 149.915C113.641 149.794 121.539 148.582 130.453 147.854C133.049 153.793 136.095 160.458 139.932 169.305C133.613 170.76 128.535 172.941 123.345 173.062C95.4741 173.426 67.4907 173.426 39.6201 173.183C20.6636 172.82 6.89756 156.944 9.26712 136.826Z" fill="white"/>
<path d="M152.795 45.2057C153.585 50.0533 155.165 54.901 155.165 59.6274C155.39 86.047 155.842 112.345 154.939 138.765C154.713 147.006 150.764 155.126 148.169 164.579C136.321 152.702 136.208 145.552 142.527 134.039C146.363 127.01 148.846 118.163 149.184 110.043C150.2 91.6218 149.523 73.2008 149.523 54.6586C149.523 51.6288 149.861 48.4778 150.087 45.4481C151.102 45.3269 151.892 45.3269 152.795 45.2057Z" fill="white"/>
<path d="M143.994 37.9343C143.768 19.6344 131.243 6.18224 113.979 5.93986C88.1397 5.69748 62.3002 5.69748 36.4607 6.06105C19.1967 6.18224 6.78474 19.5132 6.55907 38.0555C6.22056 62.536 6.3334 86.8954 6.55907 111.376C6.78474 130.403 19.0839 143.492 37.0249 143.734C49.6626 143.976 62.3002 143.734 74.8251 143.734C87.1242 143.734 99.4234 143.734 111.723 143.734C112.287 143.734 112.964 143.734 113.528 143.734C131.356 143.249 143.768 130.282 143.994 111.255C144.219 86.8954 144.332 62.4148 143.994 37.9343Z" fill="white"/>
<path d="M107.999 42.6607C107.322 45.2057 106.983 47.3872 106.983 49.3262C106.983 50.2958 106.871 51.7501 106.758 53.8103C106.532 55.8705 106.532 57.3248 106.532 58.2944C106.532 61.5665 106.419 66.5353 106.081 73.0797C105.742 79.624 105.629 84.4716 105.629 87.8649C105.629 90.41 105.855 94.1669 106.194 99.2569C106.532 104.347 106.758 108.104 106.758 110.649C106.758 112.588 106.081 114.163 104.84 115.496C103.598 116.83 102.019 117.436 100.1 117.436C98.1822 117.436 96.6025 116.83 95.1357 115.496C93.7816 114.163 93.1046 112.588 93.1046 110.77C93.1046 108.225 92.9918 104.468 92.7661 99.3781C92.5404 94.2881 92.4276 90.5311 92.4276 87.9861C92.4276 86.0471 92.4276 84.2292 92.5404 82.7749C87.4628 83.0173 81.2568 83.8657 73.6968 85.3199C67.4908 86.5318 61.2847 87.7438 55.0787 88.9557C54.9659 91.1371 54.7402 94.7728 54.4017 99.984C54.0632 104.468 53.9504 108.225 53.9504 111.134C53.9504 112.951 53.2734 114.406 52.0322 115.618C50.791 116.83 49.2113 117.436 47.293 117.436C45.3748 117.436 43.908 116.83 42.5539 115.496C41.1999 114.163 40.6357 112.588 40.6357 110.77C40.6357 107.377 40.9742 102.287 41.5384 95.3788C42.1026 88.5921 42.4411 83.5021 42.4411 79.9875C42.4411 75.6247 42.5539 69.0804 42.7796 60.4758C43.0053 51.7501 43.1181 45.2057 43.1181 40.9641C43.1181 39.1462 43.7951 37.5707 45.0363 36.2376C46.2775 34.9045 47.8572 34.2986 49.7754 34.2986C51.6937 34.2986 53.1605 34.9045 54.5146 36.2376C55.7558 37.5707 56.4328 39.1462 56.4328 41.0853C56.4328 43.7515 56.3199 47.6296 56.2071 52.962C55.9814 58.2944 55.9814 62.1725 55.9814 64.8387C55.9814 65.687 55.8686 67.3837 55.6429 69.8075C55.4173 72.1101 55.4173 73.8068 55.4173 75.0187L74.0353 71.2618C81.2568 69.9287 87.5756 69.0804 92.8789 68.838C92.9918 66.5353 93.2174 60.2334 93.5559 49.9322C93.6688 47.266 94.3458 44.115 95.8127 40.6005C97.6181 36.2376 99.6491 34.1774 102.019 34.1774C103.711 34.1774 105.291 34.7833 106.532 35.9952C107.999 37.3283 108.676 39.025 108.676 40.9641C108.112 41.57 108.112 42.176 107.999 42.6607Z" fill="black"/>
</svg>
