<svg width="88" height="46" viewBox="0 0 88 46" fill="none" xmlns="http://www.w3.org/2000/svg">
<path d="M13.1468 30.9291C12.0069 31.7651 10.791 32.373 9.49914 32.829C8.20725 33.2849 6.91537 33.4369 5.5475 33.4369C3.72366 33.4369 2.35579 33.0569 1.44387 32.221C0.455959 31.3851 0 30.3972 0 29.1813C0 27.4335 0.911917 25.9136 2.73575 24.5457C4.55959 23.1778 7.90328 21.734 12.6908 20.0621V18.3143C12.6908 17.0224 12.3869 16.2625 11.7789 15.8825C11.171 15.5025 10.487 15.3506 9.65112 15.3506C7.6753 15.3506 6.53541 16.1105 6.30743 17.5544C6.15544 18.5423 5.85147 19.3022 5.31952 19.7582C4.86356 20.2141 4.10363 20.4421 3.11572 20.4421C2.2038 20.4421 1.51986 20.2141 0.911917 19.6822C0.379965 19.2262 0.0759931 18.6183 0.0759931 17.9343C0.0759931 16.4145 1.0639 15.1986 3.03972 14.1347C5.01554 13.0708 7.59931 12.6148 10.943 12.6148C12.7668 12.6148 14.2867 12.6908 15.5786 12.9188C16.7945 13.1468 17.7824 13.5267 18.5423 14.1347C19.3022 14.7426 19.8342 15.3506 20.0622 16.0345C20.2902 16.7184 20.4421 17.6304 20.4421 18.7702V27.8894C20.4421 29.2573 20.8221 29.9412 21.658 29.9412C22.342 29.9412 22.7979 29.4853 23.0259 28.5734H25.0777C25.0017 30.2452 24.3938 31.4611 23.2539 32.221C22.114 32.981 20.7461 33.3609 19.0743 33.3609C16.1105 33.5129 14.1347 32.677 13.1468 30.9291ZM12.6908 28.3454V22.7979C10.487 23.7098 9.04318 24.5457 8.35924 25.3057C7.6753 26.0656 7.37133 26.8255 7.37133 27.6614C7.37133 28.2694 7.59931 28.8013 7.97927 29.3333C8.35924 29.7892 8.89119 30.0932 9.57513 30.0932C10.1831 30.0932 10.715 29.9412 11.247 29.7132C11.7029 29.3333 12.2349 28.8773 12.6908 28.3454Z" fill="#333333"/>
<path d="M36.9327 0V27.3575C36.9327 28.5734 37.1607 29.4093 37.5406 29.8653C37.9206 30.3212 38.8325 30.5492 40.2764 30.5492V33.057H25.6857V30.5492C26.9776 30.5492 27.8895 30.3972 28.4215 30.0933C28.9534 29.7893 29.1814 28.8774 29.1814 27.3575V7.44732C29.1814 6.15544 28.9534 5.31952 28.5734 4.93955C28.1935 4.48359 27.2056 4.33161 25.6857 4.33161V1.74784L36.9327 0Z" fill="#333333"/>
<path d="M52.2832 0V27.3575C52.2832 28.5734 52.5112 29.4093 52.8912 29.8653C53.2712 30.3212 54.1831 30.5492 55.6269 30.5492V33.057H41.0363V30.5492C42.3282 30.5492 43.2401 30.3972 43.772 30.0933C44.304 29.7893 44.532 28.8774 44.532 27.3575V7.44732C44.532 6.15544 44.304 5.31952 43.924 4.93955C43.468 4.55959 42.5561 4.33161 41.0363 4.33161V1.74784L52.2832 0Z" fill="#333333"/>
<path d="M71.8134 26.2936L75.0051 19.5303C75.5371 18.3144 75.8411 17.5544 75.8411 17.2505C75.8411 16.4145 75.1571 15.9586 73.7893 15.9586V13.4508H81.6165V15.9586C80.7046 16.0346 80.0207 16.3385 79.6407 16.8705C79.2608 17.4024 78.3488 18.9983 76.981 21.886L69.3057 37.7686C67.7858 40.8843 66.5699 42.9361 65.658 43.848C64.7461 44.76 63.6062 45.2919 62.2383 45.2919C61.1744 45.2919 60.3385 44.9879 59.6545 44.38C58.9706 43.772 58.6666 43.0121 58.6666 42.1002C58.6666 40.5803 59.7305 39.5164 61.9343 38.9845C63.9102 38.5285 65.278 37.9966 65.886 37.4646C66.5699 36.8567 67.2538 35.7168 68.0138 34.0449L59.5026 19.3023L59.1226 18.6183C58.5146 17.4024 57.9827 16.7185 57.6787 16.4145C57.3747 16.1866 56.8428 16.0346 56.0069 15.9586V13.4508H68.6977V15.9586C67.4058 16.0346 66.7979 16.3385 66.7979 16.9465C66.7979 17.1745 67.0259 17.7824 67.5578 18.6943L71.8134 26.2936Z" fill="#333333"/>
<path d="M79.3368 29.5613C79.3368 28.3455 79.7928 27.3575 80.6287 26.5216C81.4646 25.6857 82.5285 25.2297 83.6684 25.2297C84.8843 25.2297 85.8722 25.6857 86.7081 26.5216C87.5441 27.3575 88 28.4214 88 29.5613C88 30.7772 87.5441 31.7651 86.7081 32.6011C85.8722 33.437 84.8083 33.8929 83.6684 33.8929C82.4525 33.8929 81.4646 33.437 80.6287 32.6011C79.7928 31.7651 79.3368 30.7772 79.3368 29.5613Z" fill="#333333"/>
</svg>
