<svg width="95" height="56" viewBox="0 0 95 56" fill="none" xmlns="http://www.w3.org/2000/svg">
<g filter="url(#filter0_d_12_1260)">
<path d="M47.4186 47.7584C37.9186 47.7584 28.4186 47.7584 18.9186 47.7584C12.6186 47.7584 5.61856 42.4584 5.01856 36.3584C4.21856 27.4584 3.91856 18.4584 4.01856 9.45845C4.11856 4.15845 8.61856 0.258446 14.0186 0.158446C33.7186 0.0584459 53.3186 -0.141554 73.0186 0.158446C82.9186 0.358446 90.5186 8.75844 90.5186 18.5584C90.5186 23.2584 90.5186 27.8584 90.4186 32.5584C90.2186 41.5584 83.9186 47.6584 74.8186 47.5584C65.8186 47.6584 56.6186 47.6584 47.4186 47.7584ZM44.1186 3.65845C34.4186 3.65845 24.8186 3.55845 15.1186 3.65845C9.91856 3.75845 7.41856 6.15845 7.21856 11.2584C7.11856 16.2584 7.11856 21.2584 7.21856 26.2584C7.31856 31.3584 9.81856 33.9584 14.9186 34.0584C33.9186 34.1584 52.9186 34.1584 71.8186 34.0584C77.1186 34.0584 79.6186 31.3584 79.7186 25.9584C79.8186 21.4584 79.8186 16.9584 79.7186 12.4584C79.6186 6.15845 77.3186 3.75845 70.9186 3.75845C62.1186 3.65845 53.1186 3.65845 44.1186 3.65845ZM79.5186 37.0584C56.1186 37.0584 33.6186 37.0584 10.1186 37.0584C12.8186 41.4584 15.5186 43.3584 19.9186 43.2584C38.4186 43.1584 56.8186 43.2584 75.3186 43.1584C77.1186 43.1584 79.2186 42.7584 81.0186 42.2584C80.5186 40.4584 79.8186 38.0584 79.5186 37.0584ZM85.2186 11.6584C84.5186 11.6584 83.9186 11.5584 83.2186 11.5584C84.5186 20.1584 81.2186 28.8584 82.8186 37.4584C83.5186 37.4584 84.6186 38.2584 85.3186 39.4584C85.2186 30.7584 85.2186 20.2584 85.2186 11.6584Z" fill="black"/>
<path d="M79.5187 37.0584C79.8187 38.0584 80.3187 39.8584 80.8187 41.6584C79.0187 42.1584 77.1187 43.1584 75.3187 43.1584C56.8187 43.2584 38.4187 43.1584 19.9187 43.2584C15.5187 43.2584 12.8187 41.3584 10.1187 37.0584C33.5187 37.0584 56.1187 37.0584 79.5187 37.0584Z" fill="white"/>
<path d="M85.2186 11.6584C85.2186 20.2584 85.2186 28.8584 85.2186 37.4584C84.5186 37.4584 83.8186 37.4584 83.1186 37.4584C81.5186 28.8584 84.0186 17.7584 82.7186 9.15845C83.4186 9.15845 84.5186 11.6584 85.2186 11.6584Z" fill="white"/>
<path d="M79.8185 12.4584C79.7185 6.15843 77.4185 3.75843 71.0185 3.75843C62.0185 3.65843 53.0185 3.75843 44.0185 3.75843C34.3185 3.75843 24.7185 3.65843 15.0185 3.75843C9.81846 3.85843 7.31846 6.25843 7.11846 11.3584C7.01846 16.3584 7.01846 21.3584 7.11846 26.3584C7.21846 31.4584 9.71846 34.0584 14.8185 34.1584C33.8185 34.2584 52.8185 34.2584 71.7185 34.1584C77.0185 34.1584 79.5185 31.4584 79.6185 26.0584C79.9185 21.3584 79.9185 16.9584 79.8185 12.4584Z" fill="white"/>
<path d="M31.5186 11.7584C40.3186 12.0584 49.1186 11.4584 57.8186 10.0584C51.6186 15.4584 45.2186 21.1584 41.8186 28.5584C37.1186 22.8584 32.5186 17.0584 28.0186 11.1584" fill="black"/>
</g>
<defs>
<filter id="filter0_d_12_1260" x="0" y="0" width="94.5186" height="55.7584" filterUnits="userSpaceOnUse" color-interpolation-filters="sRGB">
<feFlood flood-opacity="0" result="BackgroundImageFix"/>
<feColorMatrix in="SourceAlpha" type="matrix" values="0 0 0 0 0 0 0 0 0 0 0 0 0 0 0 0 0 0 127 0" result="hardAlpha"/>
<feOffset dy="4"/>
<feGaussianBlur stdDeviation="2"/>
<feComposite in2="hardAlpha" operator="out"/>
<feColorMatrix type="matrix" values="0 0 0 0 0 0 0 0 0 0 0 0 0 0 0 0 0 0 0.25 0"/>
<feBlend mode="normal" in2="BackgroundImageFix" result="effect1_dropShadow_12_1260"/>
<feBlend mode="normal" in="SourceGraphic" in2="effect1_dropShadow_12_1260" result="shape"/>
</filter>
</defs>
</svg>
