<svg width="330" height="302" viewBox="0 0 330 302" fill="none" xmlns="http://www.w3.org/2000/svg">
<g filter="url(#filter0_d_12_1269)">
<path d="M299.555 279.4C298.751 278.805 298.59 278.656 298.429 278.358C292.637 268.985 293.28 260.951 301.325 252.173C305.026 248.007 305.669 240.568 305.669 234.468C305.991 168.557 305.991 102.795 305.669 36.8849C305.669 31.0824 304.06 25.2799 303.095 18.7335C310.174 22.7506 313.392 28.5531 315.001 35.3971C315.323 37.0337 315.323 38.8191 315.323 40.6045C315.323 111.425 315.323 182.245 315.323 253.065C315.323 264.671 309.852 273.3 299.555 279.4Z" fill="#B5EFED"/>
<path d="M160.865 289.963C121.446 289.963 82.0266 289.963 42.7685 289.963C20.8869 289.963 8.17631 278.21 8.3372 258.273C8.4981 236.253 8.65898 214.233 8.98077 192.065C9.14166 173.169 21.0478 162.308 41.6422 162.16C66.0981 162.011 90.3931 161.862 114.849 162.16C121.607 162.308 123.537 160.225 123.376 154.125C123.055 115.442 123.698 76.7585 123.055 38.2239C122.733 19.9237 136.409 3.70647 157.486 4.00403C196.261 4.3016 235.198 3.70647 273.973 4.45038C282.983 4.59916 292.476 7.42602 301.003 10.6992C314.518 15.9066 321.759 26.6189 321.759 40.0093C322.08 111.425 322.08 182.691 321.759 254.107C321.598 274.49 303.899 289.815 281.696 289.963C241.312 289.963 201.088 289.963 160.865 289.963ZM128.203 166.772C124.824 166.772 121.928 166.772 119.032 166.772C93.2892 166.772 67.5462 166.772 41.8031 166.772C24.1048 166.772 14.2903 175.848 14.2903 192.065C14.1294 208.431 14.2903 224.797 14.2903 241.163C14.2903 257.529 23.1394 265.861 40.9987 265.861C115.814 266.01 190.63 265.712 265.446 266.01C284.27 266.158 300.521 250.983 300.199 233.426C299.394 168.26 299.877 102.944 299.877 37.7776C299.877 18.8823 288.936 8.76506 268.664 8.76506C232.463 8.76506 196.261 8.76506 160.06 8.76506C139.144 8.76506 128.525 18.7335 128.525 38.0752C128.525 78.2464 128.686 118.418 128.686 158.589C128.686 160.969 128.364 163.35 128.203 166.772ZM287.649 268.836C274.456 269.432 262.55 270.473 250.644 270.473C186.125 270.622 121.607 270.622 56.9272 270.473C42.7685 270.473 27.8054 273.151 15.5774 261.695C16.5428 275.234 25.7137 283.268 39.5506 283.268C120.641 283.417 201.893 283.268 282.983 283.268C286.684 283.268 290.384 282.078 294.729 281.483C291.672 275.978 289.258 271.663 287.649 268.836ZM298.912 279.251C309.209 273.151 314.679 264.522 314.679 252.917C314.679 182.096 314.679 111.276 314.679 40.4557C314.679 38.6703 314.679 36.8849 314.358 35.2483C312.749 28.4043 309.531 22.6018 302.451 18.5847C303.417 25.1311 305.026 30.9336 305.026 36.7361C305.187 102.647 305.187 168.408 305.026 234.319C305.026 240.27 304.543 247.858 300.682 252.024C292.637 260.802 291.993 268.836 297.785 278.21C297.785 278.507 298.107 278.656 298.912 279.251Z" fill="black"/>
<path d="M287.649 268.836C289.258 271.663 291.671 275.978 294.728 281.483C290.545 282.227 286.684 283.268 282.983 283.268C201.893 283.417 120.641 283.417 39.5506 283.268C25.7137 283.268 16.7037 275.234 15.5774 261.695C27.9662 273.151 42.7684 270.473 56.9271 270.473C121.446 270.622 185.964 270.622 250.643 270.473C262.55 270.473 274.456 269.58 287.649 268.836Z" fill="white"/>
<path d="M299.712 39.2329C299.712 20.4104 288.851 10.4017 268.425 10.4017C232.274 10.4017 195.961 10.4017 159.81 10.4017C138.898 10.4017 128.198 20.2611 128.198 39.5317C128.198 79.4174 128.361 119.452 128.361 159.338C128.361 161.728 128.198 164.119 127.874 167.405C124.47 167.405 121.552 167.405 118.796 167.405C93.0203 167.405 67.2446 167.405 41.631 167.405C23.9608 167.405 14.072 176.517 14.072 192.502C13.9099 208.785 14.072 225.068 14.072 241.35C14.072 257.633 22.9882 265.85 40.8204 265.85C115.716 265.999 190.449 265.7 265.345 265.999C284.312 266.148 300.361 251.06 300.199 233.582C299.226 168.899 299.712 104.066 299.712 39.2329Z" fill="white"/>
<path d="M149.28 221.375C147.671 221.375 145.902 221.077 144.132 220.631V231.046C144.132 231.641 143.971 232.236 143.488 232.682C143.006 233.129 142.523 233.277 141.879 233.277C141.236 233.277 140.592 233.129 140.27 232.682C139.949 232.236 139.627 231.79 139.627 231.046V222.268V213.638C139.627 210.514 139.466 207.538 139.305 205.009L138.983 200.545C138.983 199.504 139.144 198.611 139.627 197.867C140.109 196.975 140.753 196.528 141.718 196.528C142.362 196.528 142.845 196.677 143.327 197.123C143.81 197.57 143.971 198.016 143.971 198.611C143.971 198.76 143.971 198.909 143.971 199.355C143.971 199.801 143.81 200.248 143.81 200.545C145.097 199.653 146.545 199.058 147.671 198.611C148.798 198.165 150.085 198.016 151.211 198.016C154.429 198.016 156.842 199.355 158.29 202.033C159.417 204.116 160.06 206.943 160.06 210.365C160.06 213.489 159.095 216.019 157.325 218.102C155.073 220.333 152.498 221.375 149.28 221.375ZM151.05 202.48C149.602 202.48 148.315 202.777 147.189 203.372C146.384 203.819 145.258 204.562 143.971 205.753C144.132 209.026 144.293 212.448 144.293 216.167C146.063 216.763 147.671 217.06 149.441 217.06C151.372 217.06 152.981 216.316 153.946 214.977C154.912 213.787 155.233 212.299 155.233 210.365C155.233 207.687 154.912 205.753 154.107 204.414C153.303 203.075 152.337 202.48 151.05 202.48Z" fill="#333333"/>
<path d="M183.551 204.562C183.39 206.348 182.585 207.241 181.137 207.241C179.85 207.241 179.046 206.497 179.046 205.009C179.046 204.711 179.046 204.265 179.046 203.521V201.736C176.632 202.033 174.541 202.628 173.093 203.67C171.645 204.562 170.518 206.05 169.553 207.984V219.887C169.553 221.375 168.749 222.119 167.14 222.119C165.692 222.119 165.048 221.375 165.048 219.887V204.562C165.048 204.116 165.048 203.372 165.048 202.331C165.048 201.289 165.048 200.694 165.048 200.099C165.048 198.611 165.692 197.867 167.14 197.867C168.749 197.867 169.392 199.058 169.553 201.438C172.61 198.76 175.989 197.421 179.528 197.421C180.816 197.421 181.781 197.867 182.425 198.76C183.068 199.653 183.39 200.992 183.39 202.777C183.551 203.819 183.551 204.265 183.551 204.562Z" fill="#333333"/>
<path d="M197.227 221.97C194.653 221.97 192.239 221.077 190.469 219.292C188.378 217.358 187.251 214.531 187.091 211.258C186.93 207.984 187.895 205.009 189.826 202.628C192.078 199.653 195.135 198.165 198.997 198.165C202.215 198.165 204.467 199.504 206.076 202.182C207.363 204.265 208.007 206.943 208.007 209.919C208.007 213.192 207.041 215.87 205.271 218.25C203.18 220.631 200.445 221.97 197.227 221.97ZM198.514 202.48C196.261 202.48 194.331 203.521 193.044 205.604C192.078 207.241 191.435 209.175 191.435 211.258C191.435 213.341 192.078 214.977 193.365 216.167C194.331 217.209 195.618 217.655 197.066 217.655C198.675 217.655 200.123 217.06 201.249 216.019C202.536 214.828 203.341 213.192 203.341 211.109C203.663 205.306 202.054 202.48 198.514 202.48Z" fill="#333333"/>
<path d="M221.2 225.69C221.2 224.053 220.878 219.589 220.395 212.597L219.591 200.545C219.591 199.801 219.752 199.206 220.235 198.611C220.717 198.016 221.2 197.718 222.004 197.718C222.487 197.718 223.131 197.867 223.613 198.314C224.096 198.76 224.418 199.057 224.418 199.355L225.222 211.853L225.866 225.243C225.866 227.326 225.222 229.112 223.935 230.748C222.487 232.534 220.878 233.426 218.787 233.426C215.408 233.426 212.512 231.046 210.259 226.285C210.098 225.838 209.937 225.541 209.937 225.243C209.937 224.648 210.259 224.202 210.742 223.755C211.224 223.309 211.868 223.16 212.351 223.16C213.316 223.16 214.281 224.053 215.247 225.987C215.569 226.433 215.89 227.177 216.534 228.07C217.178 228.814 217.821 229.112 218.626 229.112C219.269 229.112 219.913 228.665 220.395 227.624C220.878 227.177 221.2 226.433 221.2 225.69ZM221.522 193.106C220.717 193.106 220.074 192.809 219.591 192.362C219.108 191.916 218.787 191.321 218.787 190.577C218.787 189.833 219.108 189.238 219.591 188.792C220.074 188.345 220.717 188.048 221.522 188.048C222.326 188.048 222.97 188.345 223.452 188.792C223.935 189.238 224.257 189.833 224.257 190.577C224.257 191.321 223.935 191.916 223.452 192.362C222.97 192.809 222.165 193.106 221.522 193.106Z" fill="#333333"/>
<path d="M249.035 202.033C248.713 202.033 248.391 202.033 247.908 202.033C247.426 202.033 247.104 202.033 246.782 202.033C246.46 202.033 245.334 202.182 243.564 202.331L244.047 215.275V216.167V217.209C244.047 220.333 243.242 221.97 241.633 221.97C240.99 221.97 240.507 221.821 240.025 221.375C239.542 220.928 239.381 220.482 239.381 219.887C239.381 219.292 239.381 218.548 239.381 217.358C239.381 216.167 239.381 215.424 239.381 214.828L238.898 202.033C237.772 202.033 236.002 201.884 233.589 201.736C232.141 201.587 231.497 200.843 231.497 199.504C231.497 198.909 231.658 198.314 232.141 197.867C232.623 197.421 233.106 197.272 233.75 197.272L238.737 197.57C238.737 196.826 238.737 195.784 238.576 194.594C238.576 193.404 238.416 192.511 238.416 191.916C238.416 191.321 238.576 190.726 239.059 190.428C239.542 190.131 240.025 189.833 240.668 189.833C242.116 189.833 242.921 190.874 243.082 193.106C243.082 193.701 243.082 194.296 243.082 195.04V196.231V197.57C245.012 197.272 246.139 197.272 246.46 197.272C248.069 197.272 249.196 197.272 249.678 197.421C250.644 197.718 251.126 198.462 251.126 199.504C251.126 200.099 250.965 200.694 250.483 201.14C250.161 201.884 249.678 202.033 249.035 202.033Z" fill="#333333"/>
<path d="M271.882 203.819C271.077 203.819 270.434 203.521 270.112 203.075C269.951 202.628 269.629 201.884 269.468 200.694C268.342 200.992 266.411 201.438 263.998 202.182C261.424 203.075 260.136 204.265 260.136 205.604C260.619 205.753 261.102 205.901 261.584 205.901C265.124 206.497 267.859 207.389 269.629 208.431C272.203 209.919 273.491 212.15 273.491 215.126C273.491 217.507 272.364 219.292 270.112 220.482C268.342 221.524 265.929 221.97 263.193 221.97C261.102 221.97 259.171 221.672 257.24 221.077C254.827 220.333 253.54 219.143 253.54 217.655C253.54 217.06 253.862 216.614 254.344 216.167C254.827 215.721 255.47 215.572 255.953 215.572C256.436 215.572 257.079 215.87 257.884 216.614C258.206 216.911 259.171 217.209 260.458 217.507C261.584 217.655 262.389 217.804 263.193 217.804C264.48 217.804 265.607 217.655 266.733 217.358C268.181 216.911 268.986 216.316 268.986 215.424C268.986 213.489 267.537 212.15 264.48 211.406L262.067 210.96C259.975 210.514 258.527 210.067 257.562 209.472C256.275 208.728 255.631 207.389 255.631 205.753C255.631 202.777 257.24 200.545 260.297 199.206C261.263 198.76 262.711 198.314 264.802 197.867C266.894 197.421 268.342 196.826 269.307 196.528C269.951 196.231 270.594 196.082 271.399 196.082C272.042 196.082 272.686 196.231 273.008 196.677C273.33 197.123 273.651 197.57 273.651 198.314C273.651 198.76 273.812 199.355 273.973 200.099C274.134 200.843 274.295 201.587 274.295 201.884C274.295 202.48 274.134 203.075 273.651 203.521C273.008 203.67 272.525 203.819 271.882 203.819Z" fill="#333333"/>
</g>
<defs>
<filter id="filter0_d_12_1269" x="0.335693" y="0" width="329.664" height="301.963" filterUnits="userSpaceOnUse" color-interpolation-filters="sRGB">
<feFlood flood-opacity="0" result="BackgroundImageFix"/>
<feColorMatrix in="SourceAlpha" type="matrix" values="0 0 0 0 0 0 0 0 0 0 0 0 0 0 0 0 0 0 127 0" result="hardAlpha"/>
<feOffset dy="4"/>
<feGaussianBlur stdDeviation="4"/>
<feComposite in2="hardAlpha" operator="out"/>
<feColorMatrix type="matrix" values="0 0 0 0 0 0 0 0 0 0 0 0 0 0 0 0 0 0 0.25 0"/>
<feBlend mode="normal" in2="BackgroundImageFix" result="effect1_dropShadow_12_1269"/>
<feBlend mode="normal" in="SourceGraphic" in2="effect1_dropShadow_12_1269" result="shape"/>
</filter>
</defs>
</svg>
